Coordinates
version=1
nRows=62
nColumns=21
inDegrees=no
endheader
time	ra_wr_s_p	ra_wr_e_f	ra_cmc1_ad_ab	ra_cmc1_f_e	ra_mcp1_f_e	ra_ip1_f_e	ra_mcp2_e_f	ra_pip2_e_f	ra_dip2_e_f	ra_mcp3_e_f	ra_pip3_e_f	ra_dip3_e_f	ra_mcp4_e_f	ra_pip4_e_f	ra_dip4_e_f	ra_mcp5_e_f	ra_pip5_e_f	ra_dip5_e_f	ra_el_e_f	ra_wr_ad_ab
0.000000	0.000000	0.087300	0.436350	0.436350	-0.392700	-0.785400	0.785400	1.047200	0.785400	0.785400	1.047200	0.785400	0.785400	1.047200	0.785400	0.785400	1.047200	0.785400	1.570796	0.085000
0.001000	0.000000	0.087300	0.436348	0.436348	-0.392698	-0.785396	0.785396	1.047195	0.785396	0.785396	1.047195	0.785396	0.785396	1.047195	0.785396	0.785396	1.047195	0.785396	1.570796	0.085000
0.002000	0.000000	0.087300	0.436344	0.436344	-0.392695	-0.785389	0.785389	1.047186	0.785389	0.785389	1.047186	0.785389	0.785389	1.047186	0.785389	0.785389	1.047186	0.785389	1.570796	0.085000
0.003000	0.000000	0.087300	0.436338	0.436338	-0.392689	-0.785379	0.785379	1.047171	0.785379	0.785379	1.047171	0.785379	0.785379	1.047171	0.785379	0.785379	1.047171	0.785379	1.570796	0.085000
0.004000	0.000000	0.087300	0.436330	0.436330	-0.392682	-0.785364	0.785364	1.047152	0.785364	0.785364	1.047152	0.785364	0.785364	1.047152	0.785364	0.785364	1.047152	0.785364	1.570796	0.085000
0.005000	0.000000	0.087300	0.436320	0.436320	-0.392673	-0.785346	0.785346	1.047128	0.785346	0.785346	1.047128	0.785346	0.785346	1.047128	0.785346	0.785346	1.047128	0.785346	1.570796	0.085000
0.006000	0.000000	0.087300	0.436308	0.436308	-0.392662	-0.785324	0.785324	1.047099	0.785324	0.785324	1.047099	0.785324	0.785324	1.047099	0.785324	0.785324	1.047099	0.785324	1.570796	0.085000
0.007000	0.000000	0.087300	0.436294	0.436294	-0.392649	-0.785298	0.785298	1.047065	0.785298	0.785298	1.047065	0.785298	0.785298	1.047065	0.785298	0.785298	1.047065	0.785298	1.570796	0.085000
0.008000	0.000000	0.087300	0.436277	0.436277	-0.392634	-0.785269	0.785269	1.047025	0.785269	0.785269	1.047025	0.785269	0.785269	1.047025	0.785269	0.785269	1.047025	0.785269	1.570796	0.085000
0.009000	0.000000	0.087300	0.436259	0.436259	-0.392618	-0.785235	0.785235	1.046981	0.785235	0.785235	1.046981	0.785235	0.785235	1.046981	0.785235	0.785235	1.046981	0.785235	1.570796	0.085000
0.010000	0.000000	0.087300	0.436238	0.436238	-0.392599	-0.785198	0.785198	1.046931	0.785198	0.785198	1.046931	0.785198	0.785198	1.046931	0.785198	0.785198	1.046931	0.785198	1.570796	0.085000
0.011000	0.000000	0.087300	0.436215	0.436215	-0.392578	-0.785157	0.785157	1.046875	0.785157	0.785157	1.046875	0.785157	0.785157	1.046875	0.785157	0.785157	1.046875	0.785157	1.570796	0.085000
0.012000	0.000000	0.087300	0.436190	0.436190	-0.392556	-0.785111	0.785111	1.046815	0.785111	0.785111	1.046815	0.785111	0.785111	1.046815	0.785111	0.785111	1.046815	0.785111	1.570796	0.085000
0.013000	0.000000	0.087300	0.436162	0.436162	-0.392531	-0.785062	0.785062	1.046749	0.785062	0.785062	1.046749	0.785062	0.785062	1.046749	0.785062	0.785062	1.046749	0.785062	1.570796	0.085000
0.014000	0.000000	0.087300	0.436132	0.436132	-0.392504	-0.785008	0.785008	1.046677	0.785008	0.785008	1.046677	0.785008	0.785008	1.046677	0.785008	0.785008	1.046677	0.785008	1.570796	0.085000
0.015000	0.000000	0.087300	0.436100	0.436100	-0.392475	-0.784950	0.784950	1.046600	0.784950	0.784950	1.046600	0.784950	0.784950	1.046600	0.784950	0.784950	1.046600	0.784950	1.570796	0.085000
0.016000	0.000000	0.087300	0.436065	0.436065	-0.392444	-0.784888	0.784888	1.046517	0.784888	0.784888	1.046517	0.784888	0.784888	1.046517	0.784888	0.784888	1.046517	0.784888	1.570796	0.085000
0.017000	0.000000	0.087300	0.436028	0.436028	-0.392411	-0.784821	0.784821	1.046428	0.784821	0.784821	1.046428	0.784821	0.784821	1.046428	0.784821	0.784821	1.046428	0.784821	1.570796	0.085000
0.018000	0.000000	0.087300	0.435989	0.435989	-0.392375	-0.784750	0.784750	1.046334	0.784750	0.784750	1.046334	0.784750	0.784750	1.046334	0.784750	0.784750	1.046334	0.784750	1.570796	0.085000
0.019000	0.000000	0.087300	0.435947	0.435947	-0.392338	-0.784675	0.784675	1.046233	0.784675	0.784675	1.046233	0.784675	0.784675	1.046233	0.784675	0.784675	1.046233	0.784675	1.570796	0.085000
0.020000	0.000000	0.087300	0.435903	0.435903	-0.392298	-0.784595	0.784595	1.046127	0.784595	0.784595	1.046127	0.784595	0.784595	1.046127	0.784595	0.784595	1.046127	0.784595	1.570796	0.085000
0.021000	0.000000	0.087300	0.435856	0.435856	-0.392256	-0.784511	0.784511	1.046015	0.784511	0.784511	1.046015	0.784511	0.784511	1.046015	0.784511	0.784511	1.046015	0.784511	1.570796	0.085000
0.022000	0.000000	0.087300	0.435807	0.435807	-0.392211	-0.784422	0.784422	1.045896	0.784422	0.784422	1.045896	0.784422	0.784422	1.045896	0.784422	0.784422	1.045896	0.784422	1.570796	0.085000
0.023000	0.000000	0.087300	0.435755	0.435755	-0.392164	-0.784329	0.784329	1.045772	0.784329	0.784329	1.045772	0.784329	0.784329	1.045772	0.784329	0.784329	1.045772	0.784329	1.570796	0.085000
0.024000	0.000000	0.087300	0.435700	0.435700	-0.392115	-0.784230	0.784230	1.045641	0.784230	0.784230	1.045641	0.784230	0.784230	1.045641	0.784230	0.784230	1.045641	0.784230	1.570796	0.085000
0.025000	0.000000	0.087300	0.435643	0.435643	-0.392064	-0.784127	0.784127	1.045503	0.784127	0.784127	1.045503	0.784127	0.784127	1.045503	0.784127	0.784127	1.045503	0.784127	1.570796	0.085000
0.026000	0.000000	0.087300	0.435583	0.435583	-0.392010	-0.784020	0.784020	1.045360	0.784020	0.784020	1.045360	0.784020	0.784020	1.045360	0.784020	0.784020	1.045360	0.784020	1.570796	0.085000
0.027000	0.000000	0.087300	0.435521	0.435521	-0.391954	-0.783907	0.783907	1.045209	0.783907	0.783907	1.045209	0.783907	0.783907	1.045209	0.783907	0.783907	1.045209	0.783907	1.570796	0.085000
0.028000	0.000000	0.087300	0.435455	0.435455	-0.391895	-0.783789	0.783789	1.045053	0.783789	0.783789	1.045053	0.783789	0.783789	1.045053	0.783789	0.783789	1.045053	0.783789	1.570796	0.085000
0.029000	0.000000	0.087300	0.435387	0.435387	-0.391833	-0.783667	0.783667	1.044889	0.783667	0.783667	1.044889	0.783667	0.783667	1.044889	0.783667	0.783667	1.044889	0.783667	1.570796	0.085000
0.030000	0.000000	0.087300	0.435316	0.435316	-0.391770	-0.783539	0.783539	1.044719	0.783539	0.783539	1.044719	0.783539	0.783539	1.044719	0.783539	0.783539	1.044719	0.783539	1.570796	0.085000
0.031000	0.000000	0.087300	0.435242	0.435242	-0.391703	-0.783406	0.783406	1.044542	0.783406	0.783406	1.044542	0.783406	0.783406	1.044542	0.783406	0.783406	1.044542	0.783406	1.570796	0.085000
0.032000	0.000000	0.087300	0.435166	0.435166	-0.391634	-0.783268	0.783268	1.044358	0.783268	0.783268	1.044358	0.783268	0.783268	1.044358	0.783268	0.783268	1.044358	0.783268	1.570796	0.085000
0.033000	0.000000	0.087300	0.435086	0.435086	-0.391563	-0.783125	0.783125	1.044167	0.783125	0.783125	1.044167	0.783125	0.783125	1.044167	0.783125	0.783125	1.044167	0.783125	1.570796	0.085000
0.034000	0.000000	0.087300	0.435004	0.435004	-0.391488	-0.782977	0.782977	1.043969	0.782977	0.782977	1.043969	0.782977	0.782977	1.043969	0.782977	0.782977	1.043969	0.782977	1.570796	0.085000
0.035000	0.000000	0.087300	0.434918	0.434918	-0.391411	-0.782823	0.782823	1.043764	0.782823	0.782823	1.043764	0.782823	0.782823	1.043764	0.782823	0.782823	1.043764	0.782823	1.570796	0.085000
0.036000	0.000000	0.087300	0.434830	0.434830	-0.391332	-0.782663	0.782663	1.043551	0.782663	0.782663	1.043551	0.782663	0.782663	1.043551	0.782663	0.782663	1.043551	0.782663	1.570796	0.085000
0.037000	0.000000	0.087300	0.434738	0.434738	-0.391249	-0.782499	0.782499	1.043331	0.782499	0.782499	1.043331	0.782499	0.782499	1.043331	0.782499	0.782499	1.043331	0.782499	1.570796	0.085000
0.038000	0.000000	0.087300	0.434643	0.434643	-0.391164	-0.782328	0.782328	1.043104	0.782328	0.782328	1.043104	0.782328	0.782328	1.043104	0.782328	0.782328	1.043104	0.782328	1.570796	0.085000
0.039000	0.000000	0.087300	0.434545	0.434545	-0.391076	-0.782152	0.782152	1.042869	0.782152	0.782152	1.042869	0.782152	0.782152	1.042869	0.782152	0.782152	1.042869	0.782152	1.570796	0.085000
0.040000	0.000000	0.087300	0.434444	0.434444	-0.390985	-0.781970	0.781970	1.042627	0.781970	0.781970	1.042627	0.781970	0.781970	1.042627	0.781970	0.781970	1.042627	0.781970	1.570796	0.085000
0.041000	0.000000	0.087300	0.434340	0.434340	-0.390891	-0.781783	0.781783	1.042377	0.781783	0.781783	1.042377	0.781783	0.781783	1.042377	0.781783	0.781783	1.042377	0.781783	1.570796	0.085000
0.042000	0.000000	0.087300	0.434233	0.434233	-0.390795	-0.781589	0.781589	1.042119	0.781589	0.781589	1.042119	0.781589	0.781589	1.042119	0.781589	0.781589	1.042119	0.781589	1.570796	0.085000
0.043000	0.000000	0.087300	0.434122	0.434122	-0.390695	-0.781390	0.781390	1.041853	0.781390	0.781390	1.041853	0.781390	0.781390	1.041853	0.781390	0.781390	1.041853	0.781390	1.570796	0.085000
0.044000	0.000000	0.087300	0.434008	0.434008	-0.390592	-0.781184	0.781184	1.041579	0.781184	0.781184	1.041579	0.781184	0.781184	1.041579	0.781184	0.781184	1.041579	0.781184	1.570796	0.085000
0.045000	0.000000	0.087300	0.433890	0.433890	-0.390486	-0.780973	0.780973	1.041297	0.780973	0.780973	1.041297	0.780973	0.780973	1.041297	0.780973	0.780973	1.041297	0.780973	1.570796	0.085000
0.046000	0.000000	0.087300	0.433769	0.433769	-0.390378	-0.780755	0.780755	1.041007	0.780755	0.780755	1.041007	0.780755	0.780755	1.041007	0.780755	0.780755	1.041007	0.780755	1.570796	0.085000
0.047000	0.000000	0.087300	0.433645	0.433645	-0.390266	-0.780531	0.780531	1.040708	0.780531	0.780531	1.040708	0.780531	0.780531	1.040708	0.780531	0.780531	1.040708	0.780531	1.570796	0.085000
0.048000	0.000000	0.087300	0.433517	0.433517	-0.390151	-0.780301	0.780301	1.040402	0.780301	0.780301	1.040402	0.780301	0.780301	1.040402	0.780301	0.780301	1.040402	0.780301	1.570796	0.085000
0.049000	0.000000	0.087300	0.433386	0.433386	-0.390032	-0.780065	0.780065	1.040086	0.780065	0.780065	1.040086	0.780065	0.780065	1.040086	0.780065	0.780065	1.040086	0.780065	1.570796	0.085000
0.050000	0.000000	0.087300	0.433251	0.433251	-0.389911	-0.779822	0.779822	1.039762	0.779822	0.779822	1.039762	0.779822	0.779822	1.039762	0.779822	0.779822	1.039762	0.779822	1.570796	0.085000
0.051000	0.000000	0.087300	0.433112	0.433112	-0.389786	-0.779572	0.779572	1.039430	0.779572	0.779572	1.039430	0.779572	0.779572	1.039430	0.779572	0.779572	1.039430	0.779572	1.570796	0.085000
0.052000	0.000000	0.087300	0.432970	0.432970	-0.389658	-0.779316	0.779316	1.039088	0.779316	0.779316	1.039088	0.779316	0.779316	1.039088	0.779316	0.779316	1.039088	0.779316	1.570796	0.085000
0.053000	0.000000	0.087300	0.432824	0.432824	-0.389527	-0.779053	0.779053	1.038738	0.779053	0.779053	1.038738	0.779053	0.779053	1.038738	0.779053	0.779053	1.038738	0.779053	1.570796	0.085000
0.054000	0.000000	0.087300	0.432674	0.432674	-0.389392	-0.778784	0.778784	1.038378	0.778784	0.778784	1.038378	0.778784	0.778784	1.038378	0.778784	0.778784	1.038378	0.778784	1.570796	0.085000
0.055000	0.000000	0.087300	0.432521	0.432521	-0.389254	-0.778507	0.778507	1.038010	0.778507	0.778507	1.038010	0.778507	0.778507	1.038010	0.778507	0.778507	1.038010	0.778507	1.570796	0.085000
0.056000	0.000000	0.087300	0.432363	0.432363	-0.389112	-0.778224	0.778224	1.037632	0.778224	0.778224	1.037632	0.778224	0.778224	1.037632	0.778224	0.778224	1.037632	0.778224	1.570796	0.085000
0.057000	0.000000	0.087300	0.432202	0.432202	-0.388967	-0.777933	0.777933	1.037245	0.777933	0.777933	1.037245	0.777933	0.777933	1.037245	0.777933	0.777933	1.037245	0.777933	1.570796	0.085000
0.058000	0.000000	0.087300	0.432036	0.432036	-0.388818	-0.777636	0.777636	1.036848	0.777636	0.777636	1.036848	0.777636	0.777636	1.036848	0.777636	0.777636	1.036848	0.777636	1.570796	0.085000
0.059000	0.000000	0.087300	0.431867	0.431867	-0.388666	-0.777331	0.777331	1.036442	0.777331	0.777331	1.036442	0.777331	0.777331	1.036442	0.777331	0.777331	1.036442	0.777331	1.570796	0.085000
0.060000	0.000000	0.087300	0.431694	0.431694	-0.388510	-0.777019	0.777019	1.036026	0.777019	0.777019	1.036026	0.777019	0.777019	1.036026	0.777019	0.777019	1.036026	0.777019	1.570796	0.085000
0.061000	0.000000	0.087300	0.431516	0.431516	-0.388350	-0.776700	0.776700	1.035600	0.776700	0.776700	1.035600	0.776700	0.776700	1.035600	0.776700	0.776700	1.035600	0.776700	1.570796	0.085000
